<svg width="33" height="33" viewBox="0 0 33 33" fill="none" xmlns="http://www.w3.org/2000/svg">
<mask id="mask0_199_414" style="mask-type:alpha" maskUnits="userSpaceOnUse" x="0" y="0" width="33" height="33">
<rect x="0.652344" y="0.841553" width="32" height="32" fill="#D9D9D9"/>
</mask>
<g mask="url(#mask0_199_414)">
<path d="M16.6524 24.3416C17.0302 24.3416 17.3471 24.2082 17.6031 23.9416C17.8582 23.6749 17.9857 23.3527 17.9857 22.9749C17.9857 22.5971 17.8582 22.2749 17.6031 22.0082C17.3471 21.7416 17.0302 21.6082 16.6524 21.6082C16.2524 21.6082 15.9248 21.7416 15.6697 22.0082C15.4137 22.2749 15.2857 22.5971 15.2857 22.9749C15.2857 23.3527 15.4137 23.6749 15.6697 23.9416C15.9248 24.2082 16.2524 24.3416 16.6524 24.3416ZM15.6857 19.5416H17.5857C17.5857 18.8971 17.6746 18.3802 17.8524 17.9909C18.0302 17.6025 18.4524 17.0749 19.1191 16.4082C19.7191 15.8305 20.1746 15.2913 20.4857 14.7909C20.7968 14.2913 20.9524 13.7082 20.9524 13.0416C20.9524 11.886 20.5413 10.986 19.7191 10.3416C18.8968 9.69712 17.9191 9.3749 16.7857 9.3749C15.6746 9.3749 14.7524 9.6749 14.019 10.2749C13.2857 10.8749 12.7635 11.5749 12.4524 12.3749L14.1857 13.0416C14.3413 12.6193 14.6137 12.1971 15.003 11.7749C15.3915 11.3527 15.9746 11.1416 16.7524 11.1416C17.5524 11.1416 18.1413 11.358 18.519 11.7909C18.8968 12.2247 19.0857 12.6971 19.0857 13.2082C19.0857 13.6527 18.9524 14.0638 18.6857 14.4416C18.419 14.8193 18.0857 15.186 17.6857 15.5416C16.819 16.3193 16.2693 16.9473 16.0364 17.4256C15.8026 17.9029 15.6857 18.6082 15.6857 19.5416ZM16.6524 29.5082C14.8968 29.5082 13.2524 29.1749 11.7191 28.5082C10.1857 27.8416 8.84661 26.9416 7.70172 25.8082C6.55772 24.6749 5.65238 23.3358 4.98572 21.7909C4.31905 20.2469 3.98572 18.5971 3.98572 16.8416C3.98572 15.086 4.31905 13.4358 4.98572 11.8909C5.65238 10.3469 6.55772 9.00823 7.70172 7.8749C8.84661 6.74156 10.1857 5.84156 11.7191 5.1749C13.2524 4.50823 14.8968 4.1749 16.6524 4.1749C18.4302 4.1749 20.0857 4.50823 21.6191 5.1749C23.1524 5.84156 24.4915 6.74156 25.6364 7.8749C26.7804 9.00823 27.6804 10.3469 28.3364 11.8909C28.9915 13.4358 29.319 15.086 29.319 16.8416C29.319 18.5971 28.9915 20.2469 28.3364 21.7909C27.6804 23.3358 26.7804 24.6749 25.6364 25.8082C24.4915 26.9416 23.1524 27.8416 21.6191 28.5082C20.0857 29.1749 18.4302 29.5082 16.6524 29.5082ZM16.6524 27.5082C19.6302 27.5082 22.1524 26.4696 24.219 24.3922C26.2857 22.314 27.319 19.7971 27.319 16.8416C27.319 13.886 26.2857 11.3691 24.219 9.2909C22.1524 7.21356 19.6302 6.1749 16.6524 6.1749C13.7191 6.1749 11.2079 7.21356 9.11905 9.2909C7.03016 11.3691 5.98572 13.886 5.98572 16.8416C5.98572 19.7971 7.03016 22.314 9.11905 24.3922C11.2079 26.4696 13.7191 27.5082 16.6524 27.5082Z" fill="#676767"/>
</g>
</svg>
