<svg width="176" height="32" viewBox="0 0 176 32" fill="none" xmlns="http://www.w3.org/2000/svg">
<g filter="url(#filter0_b_199_351)">
<g clip-path="url(#clip0_199_351)">
<path d="M110.142 17.3328C110.167 17.3158 110.196 17.3046 110.226 17.2999C110.368 17.2446 110.5 17.1952 110.614 17.147C110.686 17.1102 110.759 17.0792 110.835 17.0542C113.009 16.0231 114.831 13.7516 114.831 11.3603C114.831 6.34125 111.1 4.76465 106.734 4.76465H98.4941C98.576 4.92689 98.9935 6.70807 98.9935 6.77626V28.8852H102.808C102.896 28.8859 102.983 28.8691 103.064 28.8357C103.145 28.8023 103.219 28.753 103.281 28.6906C103.343 28.6282 103.392 28.554 103.425 28.4723C103.458 28.3906 103.475 28.3032 103.474 28.215V18.137H105.297C107.98 18.137 109.643 17.5139 110.05 17.3704C110.062 17.3457 110.105 17.3363 110.137 17.3328H110.142ZM105.587 14.9273H103.482V8.06717H106.322C108.346 8.06717 110.072 9.15586 110.072 11.3191C110.072 14.1196 108.136 14.9238 105.59 14.9238" fill="black"/>
<path d="M87.2558 4.76465H79.6543C79.735 4.92572 80.149 6.70807 80.149 6.77626V28.8852H83.9684C84.148 28.8874 84.3211 28.8182 84.4501 28.6927C84.5791 28.5671 84.6536 28.3955 84.6573 28.215V19.1951H87.3341C91.7687 19.1951 95.9881 17.0201 95.9881 11.9846C95.9881 6.54465 92.0038 4.76465 87.2523 4.76465H87.2558ZM87.4254 16.0007H84.6701V8.02837H87.4429C89.9549 8.02837 91.2027 9.58029 91.2027 11.9846C91.2027 14.3254 89.8637 16.0007 87.4289 16.0007" fill="black"/>
<path d="M106.416 19.9665L111.948 28.8818H117.058L110.839 19.2764C109.408 19.7329 107.917 19.9668 106.416 19.97" fill="black"/>
<path d="M118.359 6.77626V28.8793H122.218C122.397 28.8824 122.57 28.814 122.699 28.689C122.828 28.564 122.902 28.3927 122.906 28.2127V4.76465H117.924C117.939 4.92572 118.36 6.70689 118.36 6.77626" fill="black"/>
<path d="M139.963 18.7342C139.509 20.0275 139.415 21.2196 139.085 22.607C138.818 21.2373 138.63 19.9299 138.129 18.6002L133.037 4.76465H126.732C126.743 4.92572 127.187 6.70689 127.187 6.77626V28.8652H130.148C130.32 28.8499 130.48 28.7707 130.597 28.6431C130.714 28.5154 130.779 28.3485 130.78 28.175V12.5148C130.78 11.7118 130.62 10.8971 130.604 10.1399C130.872 10.9253 131.105 11.7118 131.386 12.5148L137.424 28.8852H139.857L145.719 12.5148C146 11.7118 146.232 10.9253 146.504 10.1399C146.403 10.9278 146.345 11.7206 146.33 12.5148V28.8652H150.143C150.315 28.8508 150.476 28.772 150.594 28.6443C150.712 28.5166 150.778 28.3492 150.779 28.175V4.76465H144.99L139.963 18.7342Z" fill="black"/>
<path d="M164.466 4.4084C157.133 4.4084 153.09 9.74135 153.09 16.7873C153.09 23.7779 157.093 29.2496 164.434 29.2496C171.71 29.2496 176.002 23.959 176.002 16.8696C176.002 9.64259 171.939 4.40723 164.469 4.40723L164.466 4.4084ZM164.569 26.1293C159.414 26.1293 157.919 20.9833 157.919 16.6591C157.919 12.4055 159.45 7.52046 164.511 7.52046C169.681 7.52046 171.157 12.7041 171.157 16.9801C171.157 21.2561 169.625 26.1293 164.569 26.1293Z" fill="black"/>
<path d="M1.77484 16.5901C1.77484 18.3748 2.99342 19.9008 5.1078 19.9008C5.8012 19.909 6.48529 19.7399 7.09588 19.4094V17.7481H4.56517V16.3585H8.69921V20.0913C7.71107 20.9975 6.41833 21.494 5.0809 21.481C2.15374 21.481 -0.00390625 19.2765 -0.00390625 16.5725C-0.00390625 13.8684 2.10931 11.6416 5.05049 11.6416C6.43279 11.6416 7.48881 12.0225 8.49221 12.7855L7.71452 14.0964C6.77895 13.4698 5.98021 13.2111 5.09844 13.2111C2.96652 13.2111 1.77484 14.8595 1.77484 16.5901Z" fill="black"/>
<path d="M18.2394 17.7335C18.402 18.7552 18.9165 19.9674 19.9199 19.9674C20.308 19.9632 20.6803 19.8125 20.9631 19.5453L21.5724 20.7445C21.0614 21.2317 20.3796 21.4963 19.6755 21.4805C17.4395 21.4805 16.7519 18.9186 16.6536 17.8288H15.0527V21.33H13.3184V11.7939H17.4115C19.2943 11.7939 20.3655 13.2248 20.3655 14.859C20.3643 16.2486 19.5644 17.3949 18.2394 17.7335ZM17.1413 16.4403C18.0359 16.4403 18.6055 15.7854 18.6055 14.846C18.6055 13.9067 18.0207 13.2377 17.1413 13.2377H15.0527V16.4403H17.1413Z" fill="black"/>
<path d="M33.0052 11.7939V17.7618C33.0052 20.199 31.244 21.4805 29.1706 21.4805C27.0971 21.4805 25.3359 20.199 25.3359 17.7618V11.7939H27.0702V17.7618C27.0702 19.2455 28.0327 19.9815 29.1753 19.9815C30.3178 19.9815 31.2803 19.2455 31.2803 17.7618V11.7939H33.0052Z" fill="black"/>
<path d="M38.0312 21.33V11.7939H42.0156C43.9125 11.7939 44.9825 13.2048 44.9825 14.859C44.9825 16.5132 43.8984 17.8429 42.0156 17.8429H39.7656V21.33H38.0312ZM41.7454 16.4661C42.6529 16.4661 43.2096 15.7995 43.2096 14.846C43.2096 13.8643 42.6529 13.2001 41.7454 13.2001H39.7656V16.4685L41.7454 16.4661Z" fill="black"/>
<path d="M53.6402 11.6455C56.351 11.6455 58.601 13.8523 58.601 16.5634C58.601 19.2746 56.351 21.4814 53.6402 21.4814C50.9293 21.4814 48.6816 19.2746 48.6816 16.5634C48.6816 13.8523 50.9305 11.6455 53.6402 11.6455ZM53.6402 19.9012C55.3885 19.9012 56.8386 18.4904 56.8386 16.5634C56.8386 14.6365 55.3885 13.2256 53.6402 13.2256C51.8918 13.2256 50.4428 14.6423 50.4428 16.5634C50.4428 18.4845 51.893 19.9012 53.6402 19.9012Z" fill="black"/>
<path d="M70.2392 0H69.3691V32H70.2392V0Z" fill="black"/>
</g>
</g>
<defs>
<filter id="filter0_b_199_351" x="-32" y="-32" width="240" height="96" filterUnits="userSpaceOnUse" color-interpolation-filters="sRGB">
<feFlood flood-opacity="0" result="BackgroundImageFix"/>
<feGaussianBlur in="BackgroundImageFix" stdDeviation="16"/>
<feComposite in2="SourceAlpha" operator="in" result="effect1_backgroundBlur_199_351"/>
<feBlend mode="normal" in="SourceGraphic" in2="effect1_backgroundBlur_199_351" result="shape"/>
</filter>
<clipPath id="clip0_199_351">
<rect width="176" height="32" fill="white"/>
</clipPath>
</defs>
</svg>
